<svg width="1280" height="720" xmlns="http://www.w3.org/2000/svg" xmlns:xlink="http://www.w3.org/1999/xlink" overflow="hidden"><g><rect x="0" y="0" width="1280" height="720" fill="#FFFFFF"/><path d="M383 345.5C383 200.525 500.525 83 645.5 83 790.475 83 908 200.525 908 345.5 908 490.475 790.475 608 645.5 608 500.525 608 383 490.475 383 345.5Z" stroke="#042433" stroke-width="2" stroke-miterlimit="8" fill="none" fill-rule="evenodd"/><path d="M395 171.5C395 88.3811 462.157 21 545 21 627.843 21 695 88.3811 695 171.5 695 254.619 627.843 322 545 322 462.157 322 395 254.619 395 171.5Z" stroke="#042433" stroke-width="2" stroke-miterlimit="8" fill="#FFFFFF" fill-rule="evenodd"/><path d="M781 321.5C781 257.159 833.383 205 898 205 962.617 205 1015 257.159 1015 321.5 1015 385.841 962.617 438 898 438 833.383 438 781 385.841 781 321.5Z" stroke="#042433" stroke-width="2" stroke-miterlimit="8" fill="#FFFFFF" fill-rule="evenodd"/><path d="M733 573.5C733 546.714 754.714 525 781.5 525 808.286 525 830 546.714 830 573.5 830 600.286 808.286 622 781.5 622 754.714 622 733 600.286 733 573.5Z" stroke="#042433" stroke-width="2" stroke-miterlimit="8" fill="#FFFFFF" fill-rule="evenodd"/><path d="M395 525C395 479.16 432.16 442 478 442 523.84 442 561 479.16 561 525 561 570.84 523.84 608 478 608 432.16 608 395 570.84 395 525Z" stroke="#042433" stroke-width="2" stroke-miterlimit="8" fill="#FFFFFF" fill-rule="evenodd"/></g></svg>